<?xml version="1.0" standalone="no"?>
<!DOCTYPE svg PUBLIC "-//W3C//DTD SVG 20010904//EN"
 "http://www.w3.org/TR/2001/REC-SVG-20010904/DTD/svg10.dtd">
<svg version="1.0" xmlns="http://www.w3.org/2000/svg"
 width="2000.000000pt" height="2000.000000pt" viewBox="0 0 2000.000000 2000.000000"
 preserveAspectRatio="xMidYMid meet">

<g transform="translate(0.000000,2000.000000) scale(0.100000,-0.100000)"
fill="#000000" stroke="none">
<path d="M4238 14201 c-99 -32 -167 -94 -216 -198 l-27 -58 -3 -3620 c-2
-3433 -1 -3622 15 -3654 10 -19 29 -43 43 -53 24 -17 229 -18 5943 -18 5273 0
5921 2 5947 15 65 34 60 -291 58 3707 l-3 3633 -26 56 c-37 79 -90 133 -167
171 l-67 33 -5720 2 c-5512 2 -5722 1 -5777 -16z m5933 -290 c32 -33 37 -67
14 -110 -43 -85 -175 -49 -175 47 0 86 99 125 161 63z m5362 -369 c16 -17 17
-246 15 -3143 l-3 -3123 -25 -13 c-20 -10 -1111 -13 -5526 -13 l-5501 0 -27
21 -26 20 0 3115 c0 3101 0 3114 20 3134 20 20 33 20 5538 20 5336 0 5519 -1
5535 -18z"/>
<path d="M4390 6399 c-189 -93 -348 -175 -352 -182 -12 -19 -9 -44 8 -61 14
-15 569 -16 5953 -16 4604 0 5940 3 5949 12 7 7 12 25 12 40 0 34 35 14 -379
218 l-325 160 -5260 -1 -5261 0 -345 -170z"/>
<path d="M2820 5899 c0 -12 19 -41 44 -65 l43 -44 7092 0 7091 0 39 39 c21 21
40 50 43 65 l5 26 -7178 0 -7179 0 0 -21z"/>
</g>
</svg>
